<mxfile host="app.diagrams.net" modified="2021-11-21T09:51:37.905Z" agent="5.0 (Macintosh; Intel Mac OS X 10_15_7) AppleWebKit/537.36 (KHTML, like Gecko) Chrome/95.0.4638.69 Safari/537.36" etag="unfTM0olu9eqsS6br6rA" version="15.8.3" type="github">
  <diagram id="DgkNy1R7Da5GFt-3lBxv" name="第 1 页">
    <mxGraphModel dx="1186" dy="561" grid="1" gridSize="10" guides="1" tooltips="1" connect="1" arrows="1" fold="1" page="1" pageScale="1" pageWidth="827" pageHeight="1169" background="#F1FAEE" math="0" shadow="0">
      <root>
        <mxCell id="0" />
        <mxCell id="1" parent="0" />
        <mxCell id="6i4auel2bjqROb5DKYu0-1" value="" style="rounded=0;whiteSpace=wrap;html=1;fillColor=#A8DADC;strokeColor=#457B9D;fontColor=#1D3557;" vertex="1" parent="1">
          <mxGeometry x="360" y="130" width="310" height="280" as="geometry" />
        </mxCell>
        <mxCell id="6i4auel2bjqROb5DKYu0-7" style="edgeStyle=orthogonalEdgeStyle;rounded=0;orthogonalLoop=1;jettySize=auto;html=1;entryX=1;entryY=0.5;entryDx=0;entryDy=0;labelBackgroundColor=#F1FAEE;strokeColor=#457B9D;fontColor=#1D3557;" edge="1" parent="1" source="6i4auel2bjqROb5DKYu0-2" target="6i4auel2bjqROb5DKYu0-6">
          <mxGeometry relative="1" as="geometry" />
        </mxCell>
        <mxCell id="6i4auel2bjqROb5DKYu0-2" value="工单系统" style="rounded=0;whiteSpace=wrap;html=1;" vertex="1" parent="1">
          <mxGeometry x="370" y="150" width="120" height="60" as="geometry" />
        </mxCell>
        <mxCell id="6i4auel2bjqROb5DKYu0-3" value="功能模块" style="rounded=0;whiteSpace=wrap;html=1;" vertex="1" parent="1">
          <mxGeometry x="540" y="150" width="120" height="60" as="geometry" />
        </mxCell>
        <mxCell id="6i4auel2bjqROb5DKYu0-23" style="edgeStyle=orthogonalEdgeStyle;curved=0;rounded=1;sketch=0;orthogonalLoop=1;jettySize=auto;html=1;fontColor=#1D3557;strokeColor=#457B9D;fillColor=#A8DADC;" edge="1" parent="1" source="6i4auel2bjqROb5DKYu0-4" target="6i4auel2bjqROb5DKYu0-22">
          <mxGeometry relative="1" as="geometry" />
        </mxCell>
        <mxCell id="6i4auel2bjqROb5DKYu0-4" value="对外接口" style="rounded=0;whiteSpace=wrap;html=1;" vertex="1" parent="1">
          <mxGeometry x="370" y="240" width="120" height="60" as="geometry" />
        </mxCell>
        <mxCell id="6i4auel2bjqROb5DKYu0-13" value="" style="edgeStyle=orthogonalEdgeStyle;rounded=0;orthogonalLoop=1;jettySize=auto;html=1;labelBackgroundColor=#F1FAEE;strokeColor=#457B9D;fontColor=#1D3557;" edge="1" parent="1" source="6i4auel2bjqROb5DKYu0-5" target="6i4auel2bjqROb5DKYu0-3">
          <mxGeometry relative="1" as="geometry" />
        </mxCell>
        <mxCell id="6i4auel2bjqROb5DKYu0-19" value="" style="edgeStyle=orthogonalEdgeStyle;curved=0;rounded=1;sketch=0;orthogonalLoop=1;jettySize=auto;html=1;fontColor=#1D3557;strokeColor=#457B9D;fillColor=#A8DADC;" edge="1" parent="1" source="6i4auel2bjqROb5DKYu0-5" target="6i4auel2bjqROb5DKYu0-4">
          <mxGeometry relative="1" as="geometry" />
        </mxCell>
        <mxCell id="6i4auel2bjqROb5DKYu0-5" value="系统设置" style="rounded=0;whiteSpace=wrap;html=1;" vertex="1" parent="1">
          <mxGeometry x="540" y="240" width="120" height="60" as="geometry" />
        </mxCell>
        <mxCell id="6i4auel2bjqROb5DKYu0-14" style="edgeStyle=orthogonalEdgeStyle;rounded=0;orthogonalLoop=1;jettySize=auto;html=1;entryX=0.5;entryY=0;entryDx=0;entryDy=0;labelBackgroundColor=#F1FAEE;strokeColor=#457B9D;fontColor=#1D3557;" edge="1" parent="1" source="6i4auel2bjqROb5DKYu0-6" target="6i4auel2bjqROb5DKYu0-3">
          <mxGeometry relative="1" as="geometry">
            <Array as="points">
              <mxPoint x="110" y="100" />
              <mxPoint x="600" y="100" />
            </Array>
          </mxGeometry>
        </mxCell>
        <mxCell id="6i4auel2bjqROb5DKYu0-6" value="CMDB" style="rounded=0;whiteSpace=wrap;html=1;fillColor=#A8DADC;strokeColor=#457B9D;fontColor=#1D3557;" vertex="1" parent="1">
          <mxGeometry x="50" y="150" width="120" height="60" as="geometry" />
        </mxCell>
        <mxCell id="6i4auel2bjqROb5DKYu0-8" value="资源申请挂载业务路径" style="text;html=1;strokeColor=none;fillColor=none;align=center;verticalAlign=middle;whiteSpace=wrap;rounded=0;fontColor=#1D3557;" vertex="1" parent="1">
          <mxGeometry x="210" y="150" width="130" height="20" as="geometry" />
        </mxCell>
        <mxCell id="6i4auel2bjqROb5DKYu0-11" style="edgeStyle=orthogonalEdgeStyle;rounded=0;orthogonalLoop=1;jettySize=auto;html=1;entryX=0.008;entryY=0.617;entryDx=0;entryDy=0;entryPerimeter=0;labelBackgroundColor=#F1FAEE;strokeColor=#457B9D;fontColor=#1D3557;" edge="1" parent="1" source="6i4auel2bjqROb5DKYu0-10" target="6i4auel2bjqROb5DKYu0-3">
          <mxGeometry relative="1" as="geometry" />
        </mxCell>
        <mxCell id="6i4auel2bjqROb5DKYu0-21" style="edgeStyle=orthogonalEdgeStyle;curved=0;rounded=1;sketch=0;orthogonalLoop=1;jettySize=auto;html=1;entryX=0.5;entryY=1;entryDx=0;entryDy=0;fontColor=#1D3557;strokeColor=#457B9D;fillColor=#A8DADC;" edge="1" parent="1" source="6i4auel2bjqROb5DKYu0-10" target="6i4auel2bjqROb5DKYu0-4">
          <mxGeometry relative="1" as="geometry">
            <Array as="points">
              <mxPoint x="430" y="370" />
            </Array>
          </mxGeometry>
        </mxCell>
        <mxCell id="6i4auel2bjqROb5DKYu0-10" value="" style="shape=cylinder3;whiteSpace=wrap;html=1;boundedLbl=1;backgroundOutline=1;size=15;" vertex="1" parent="1">
          <mxGeometry x="480" y="320" width="60" height="80" as="geometry" />
        </mxCell>
        <mxCell id="6i4auel2bjqROb5DKYu0-17" style="edgeStyle=orthogonalEdgeStyle;rounded=0;orthogonalLoop=1;jettySize=auto;html=1;entryX=1;entryY=0.5;entryDx=0;entryDy=0;labelBackgroundColor=#F1FAEE;strokeColor=#457B9D;fontColor=#1D3557;" edge="1" parent="1" source="6i4auel2bjqROb5DKYu0-15" target="6i4auel2bjqROb5DKYu0-3">
          <mxGeometry relative="1" as="geometry" />
        </mxCell>
        <mxCell id="6i4auel2bjqROb5DKYu0-15" value="Actor" style="shape=umlActor;verticalLabelPosition=bottom;verticalAlign=top;html=1;outlineConnect=0;fillColor=#A8DADC;strokeColor=#457B9D;fontColor=#1D3557;" vertex="1" parent="1">
          <mxGeometry x="760" y="150" width="30" height="60" as="geometry" />
        </mxCell>
        <mxCell id="6i4auel2bjqROb5DKYu0-18" value="操作" style="text;html=1;strokeColor=none;fillColor=none;align=center;verticalAlign=middle;whiteSpace=wrap;rounded=0;fontColor=#1D3557;" vertex="1" parent="1">
          <mxGeometry x="690" y="150" width="60" height="30" as="geometry" />
        </mxCell>
        <mxCell id="6i4auel2bjqROb5DKYu0-22" value="Actor" style="shape=umlActor;verticalLabelPosition=bottom;verticalAlign=top;html=1;outlineConnect=0;rounded=0;sketch=0;fontColor=#1D3557;strokeColor=#457B9D;fillColor=#A8DADC;" vertex="1" parent="1">
          <mxGeometry x="220" y="240" width="30" height="60" as="geometry" />
        </mxCell>
      </root>
    </mxGraphModel>
  </diagram>
</mxfile>
